<?xml version="1.0" encoding="UTF-8"?>
<!DOCTYPE svg PUBLIC "-//W3C//DTD SVG 1.1//EN" "http://www.w3.org/Graphics/SVG/1.1/DTD/svg11.dtd">
<!-- Creator: CorelDRAW -->
<svg xmlns="http://www.w3.org/2000/svg" xml:space="preserve" width="8.5in" height="11in" version="1.1" style="shape-rendering:geometricPrecision; text-rendering:geometricPrecision; image-rendering:optimizeQuality; fill-rule:evenodd; clip-rule:evenodd"
viewBox="0 0 8500 11000"
 xmlns:xlink="http://www.w3.org/1999/xlink">
 <defs>
  <style type="text/css">
   <![CDATA[
    .fil1 {fill:#72984D}
    .fil2 {fill:#C6D67E}
    .fil0 {fill:#373435;fill-rule:nonzero}
   ]]>
  </style>
 </defs>
 <g id="Layer_x0020_1">
  <metadata id="CorelCorpID_0Corel-Layer"/>
  <g id="Koperasi_x0020_Indonesia.cdr">
   <path class="fil0" d="M2896 6313l28 0 0 81 84 -81 39 0 -97 93 97 107 -35 0 -88 -97 0 97 -28 0 0 -200zm163 99c0,-29 11,-54 33,-75 22,-20 48,-31 78,-31 30,0 56,11 77,32 22,20 33,45 33,74 0,30 -11,55 -32,76 -22,21 -48,31 -79,31 -30,0 -56,-10 -78,-31 -21,-21 -32,-47 -32,-76zm192 1c0,-22 -8,-41 -24,-56 -16,-15 -36,-22 -59,-22 -22,0 -41,7 -57,23 -15,15 -23,34 -23,55 0,22 8,40 24,55 16,16 36,23 59,23 22,0 41,-8 56,-23 16,-15 24,-34 24,-55zm71 -100l40 0c23,0 41,5 55,16 14,11 21,24 21,41 0,18 -7,32 -22,44 -15,11 -37,17 -67,17l0 82 -27 0 0 -200zm27 24l0 70c21,0 36,-3 46,-9 10,-6 14,-15 14,-27 0,-9 -3,-17 -11,-24 -7,-7 -24,-10 -49,-10zm125 -24l111 0 0 27 -84 0 0 50 84 0 0 27 -84 0 0 69 84 0 0 27 -111 0 0 -200zm147 0l44 0c21,0 39,5 53,16 13,11 20,24 20,41 0,13 -4,25 -13,36 -9,10 -22,17 -41,21l58 86 -32 0 -55 -82 -6 0 0 82 -28 0 0 -200zm28 24l0 70c40,1 60,-11 60,-35 0,-9 -2,-16 -7,-21 -4,-6 -11,-9 -19,-11 -7,-2 -19,-3 -34,-3zm204 -32l94 208 -28 0 -23 -51 -85 0 -23 51 -29 0 94 -208zm0 63l-32 71 64 0 -32 -71zm242 -33l-22 18c-6,-6 -11,-11 -16,-14 -5,-3 -12,-4 -21,-4 -10,0 -18,2 -24,6 -6,5 -9,10 -9,17 0,6 3,12 8,16 5,5 15,10 27,16 13,5 23,10 30,15 8,5 13,10 18,16 5,6 8,12 10,18 3,6 4,13 4,20 0,17 -6,31 -18,43 -13,12 -27,17 -44,17 -17,0 -32,-4 -45,-13 -13,-9 -23,-23 -29,-42l27 -7c10,22 25,33 45,33 10,0 19,-2 25,-8 7,-6 10,-14 10,-23 0,-5 -2,-11 -5,-16 -4,-6 -8,-10 -13,-14 -5,-3 -13,-7 -24,-12 -11,-5 -20,-9 -26,-13 -6,-3 -11,-8 -16,-13 -4,-6 -7,-11 -9,-16 -3,-5 -4,-11 -4,-17 0,-14 6,-26 18,-36 11,-11 25,-16 42,-16 11,0 22,3 33,7 11,5 20,12 28,22zm38 -22l27 0 0 200 -27 0 0 -200zm159 0l27 0 0 200 -27 0 0 -200zm70 -8l148 152 0 -144 27 0 0 209 -148 -151 0 142 -27 0 0 -208zm216 8l49 0c38,0 67,10 86,30 18,21 28,44 28,70 0,26 -10,49 -29,70 -20,20 -48,30 -85,30l-49 0 0 -200zm28 27l0 146 1 0c20,0 36,-1 46,-3 10,-2 20,-6 29,-12 9,-6 16,-14 22,-25 5,-10 8,-21 8,-33 0,-16 -4,-30 -13,-42 -9,-12 -19,-21 -31,-25 -12,-4 -28,-6 -49,-6l-13 0zm158 72c0,-29 11,-54 33,-75 21,-20 47,-31 78,-31 30,0 56,11 77,32 22,20 33,45 33,74 0,30 -11,55 -32,76 -22,21 -48,31 -79,31 -30,0 -56,-10 -78,-31 -21,-21 -32,-47 -32,-76zm192 1c0,-22 -8,-41 -24,-56 -16,-15 -36,-22 -59,-22 -22,0 -41,7 -57,23 -16,15 -24,34 -24,55 0,22 9,40 25,55 16,16 36,23 59,23 22,0 40,-8 56,-23 16,-15 24,-34 24,-55zm63 -108l148 152 0 -144 27 0 0 209 -148 -151 0 142 -27 0 0 -208zm214 8l111 0 0 27 -84 0 0 50 84 0 0 27 -84 0 0 69 84 0 0 27 -111 0 0 -200zm265 22l-22 18c-6,-6 -11,-11 -16,-14 -5,-3 -12,-4 -21,-4 -9,0 -17,2 -23,6 -7,5 -10,10 -10,17 0,6 3,12 8,16 6,5 15,10 28,16 13,5 23,10 30,15 7,5 13,10 17,16 5,6 8,12 11,18 2,6 3,13 3,20 0,17 -6,31 -18,43 -12,12 -27,17 -44,17 -17,0 -32,-4 -45,-13 -12,-9 -22,-23 -29,-42l27 -7c10,22 25,33 46,33 10,0 18,-2 24,-8 7,-6 10,-14 10,-23 0,-5 -1,-11 -5,-16 -3,-6 -8,-10 -13,-14 -5,-3 -13,-7 -24,-12 -11,-5 -20,-9 -26,-13 -6,-3 -11,-8 -15,-13 -5,-6 -8,-11 -10,-16 -2,-5 -3,-11 -3,-17 0,-14 6,-26 17,-36 12,-11 26,-16 42,-16 11,0 22,3 33,7 11,5 21,12 28,22zm38 -22l27 0 0 200 -27 0 0 -200zm146 -8l95 208 -29 0 -23 -51 -85 0 -23 51 -29 0 94 -208zm0 63l-32 71 64 0 -32 -71z"/>
   <g>
    <path class="fil1" d="M4265 5957l-186 186 -755 -755 174 -175c125,129 274,271 444,311 41,166 189,313 323,433zm888 -744l175 175 -755 755 -184 -184c140,-122 282,-268 321,-435 170,-40 319,-182 443,-311zm-559 14c33,65 49,134 49,208 0,8 0,16 -1,23 -8,1 -16,1 -24,1 -76,0 -148,-16 -214,-49 31,-23 59,-44 93,-76 34,-31 68,-71 97,-107zm-585 208c0,-74 17,-143 51,-208 26,33 50,65 82,97 33,32 72,60 106,86 -67,33 -138,49 -214,49 -8,0 -16,0 -24,-1 -1,-7 -1,-15 -1,-23zm51 -359c24,-30 45,-59 77,-92 32,-32 74,-66 111,-93 -67,-32 -138,-48 -214,-48 -8,0 -16,0 -24,1 -1,8 -1,16 -1,24 0,73 17,143 51,208zm447 -99c34,32 61,65 87,98 33,-64 49,-134 49,-207 0,-8 0,-16 -1,-24 -8,-1 -16,-1 -24,-1 -76,0 -147,16 -214,48 34,25 70,54 103,86zm-118 -634l184 -183 755 755 -173 173c-125,-136 -275,-272 -445,-310 -39,-166 -181,-313 -321,-435zm-1065 572l755 -755 186 185c-134,121 -281,267 -323,433 -170,38 -320,174 -445,310l-173 -173z"/>
    <path class="fil2" d="M4327 5898l-1 -2 -1 1c-110,-98 -250,-220 -299,-362 3,0 6,0 8,0 104,0 202,-25 292,-75 90,50 188,75 292,75 3,0 6,0 9,0 -46,141 -181,264 -300,363zm766 -748l-1 1 1 2c-101,107 -227,243 -372,290 0,-3 0,-6 0,-8 0,-102 -25,-196 -75,-284 50,-87 75,-182 75,-283 0,-3 0,-6 0,-9 145,45 271,175 372,291zm-892 -116c30,-29 83,-76 125,-99 41,23 91,64 120,92 30,29 75,84 98,124 -24,41 -62,91 -92,120 -30,29 -86,70 -126,93 -41,-23 -95,-68 -125,-97 -30,-29 -68,-72 -92,-112 24,-38 63,-91 92,-121zm124 -629l1 1 1 -1c119,99 254,221 300,363 -3,0 -6,0 -9,0 -105,0 -202,23 -292,72 -90,-49 -187,-72 -292,-72 -2,0 -5,0 -8,0 49,-142 189,-265 299,-363zm-766 748l1 -2 -2 -1c102,-116 228,-246 373,-291 0,3 0,6 0,9 0,100 26,196 77,283 -51,88 -77,183 -77,284 0,2 0,5 0,8 -145,-47 -272,-183 -372,-290z"/>
   </g>
  </g>
 </g>
</svg>
